# Blender v2.79 (sub 0) OBJ File: 'AirBallonsEddie.blend'
# www.blender.org
mtllib AirBallonsEddie.mtl
o Box_Cube.003
v -1.308383 0.124441 1.500010
v -1.308383 2.958177 1.500010
v -1.308383 0.124441 -1.333725
v -1.308383 2.958177 -1.333725
v 1.525351 0.124441 1.500010
v 1.525351 2.958177 1.500010
v 1.525351 0.124441 -1.333725
v 1.525351 2.958177 -1.333725
v -1.224826 2.973405 1.416452
v -1.224826 2.973405 -1.250167
v 1.441793 2.973405 -1.250167
v 1.441793 2.973405 1.416452
v -1.224826 2.973405 1.416452
v -1.224826 2.973405 -1.250167
v 1.441793 2.973405 -1.250167
v 1.441793 2.973405 1.416452
v -1.224826 0.704982 1.416452
v -1.224826 0.704982 -1.250167
v 1.441793 0.704982 -1.250167
v 1.441793 0.704982 1.416452
vn 0.0000 0.0000 1.0000
vn -1.0000 0.0000 0.0000
vn 0.0000 0.0000 -1.0000
vn 1.0000 0.0000 0.0000
vn 0.0000 1.0000 0.0000
vn 0.0000 -1.0000 0.0000
vn 0.1793 0.9838 0.0000
vn -0.1793 0.9838 0.0000
vn 0.0000 0.9838 0.1793
vn 0.0000 0.9838 -0.1793
usemtl Main
s off
f 9//1 16//1 13//1
f 11//1 14//1 15//1
f 12//1 15//1 16//1
f 10//1 13//1 14//1
f 9//1 12//1 16//1
f 11//1 10//1 14//1
f 12//1 11//1 15//1
f 10//1 9//1 13//1
usemtl BoxColor
f 2//2 3//2 1//2
f 4//3 7//3 3//3
f 8//4 5//4 7//4
f 6//1 1//1 5//1
f 18//5 20//5 19//5
f 2//2 4//2 3//2
f 4//3 8//3 7//3
f 8//4 6//4 5//4
f 6//1 2//1 1//1
f 18//5 17//5 20//5
usemtl BoxBottom
f 7//6 1//6 3//6
f 7//6 5//6 1//6
usemtl BoxInside
f 15//2 20//2 16//2
f 13//4 18//4 14//4
f 16//3 17//3 13//3
f 14//1 19//1 15//1
f 15//2 19//2 20//2
f 13//4 17//4 18//4
f 16//3 20//3 17//3
f 14//1 18//1 19//1
usemtl BoxBorder
f 8//7 12//7 6//7
f 2//8 10//8 4//8
f 2//9 12//9 9//9
f 4//10 11//10 8//10
f 8//7 11//7 12//7
f 2//8 9//8 10//8
f 2//9 6//9 12//9
f 4//10 10//10 11//10
o Rope1_Cube.001
v 1.423950 2.916420 1.471011
v 1.397168 5.308613 1.662577
v 1.420583 2.921530 1.406737
v 1.393801 5.313723 1.598303
v 1.488423 2.917407 1.467713
v 1.461640 5.309599 1.659278
v 1.485056 2.922516 1.403439
v 1.458274 5.314708 1.595004
vn -0.9986 -0.0153 0.0511
vn -0.0521 0.0791 -0.9955
vn 0.9986 0.0153 -0.0511
vn 0.0521 -0.0791 0.9955
vn 0.0112 -0.9967 -0.0798
vn -0.0112 0.9967 0.0798
usemtl Cuerda.001
s off
f 22//11 23//11 21//11
f 24//12 27//12 23//12
f 28//13 25//13 27//13
f 26//14 21//14 25//14
f 27//15 21//15 23//15
f 24//16 26//16 28//16
f 22//11 24//11 23//11
f 24//12 28//12 27//12
f 28//13 26//13 25//13
f 26//14 22//14 21//14
f 27//15 25//15 21//15
f 24//16 22//16 26//16
o Ballon_Cylinder.002
v 0.827086 7.040277 -1.996766
v -0.000001 5.193104 -2.238426
v -0.000001 7.193104 -2.238426
v 0.856607 5.193104 -2.068036
v 0.856607 7.193104 -2.068036
v 1.582804 5.193104 -1.582806
v 1.582804 7.193104 -1.582806
v 2.068034 5.193104 -0.856609
v 2.068034 7.193104 -0.856609
v 2.238424 5.193104 -0.000000
v 2.238424 7.193104 -0.000000
v 2.068034 5.193104 0.856608
v 2.068034 7.193104 0.856608
v 1.582804 5.193104 1.582806
v 1.582804 7.193104 1.582806
v 0.856607 5.193104 2.068035
v 0.856607 7.193104 2.068035
v -0.000001 5.193104 2.238425
v -0.000001 7.193104 2.238425
v -0.856610 5.193104 2.068035
v -0.856610 7.193104 2.068035
v -1.582807 5.193104 1.582806
v -1.582807 7.193104 1.582806
v -2.068037 5.193104 0.856608
v -2.068037 7.193104 0.856608
v -2.238427 5.193104 -0.000000
v -2.238427 7.193104 -0.000000
v -2.068037 5.193104 -0.856609
v -2.068037 7.193104 -0.856609
v -1.582807 5.193104 -1.582807
v -1.582807 7.193104 -1.582807
v -0.856608 5.193104 -2.068036
v -0.856608 7.193104 -2.068036
v -0.000001 17.982769 -0.000000
v -0.000002 8.218035 -4.066779
v 1.556288 8.218035 -3.757214
v 2.875646 8.218035 -2.875647
v 3.757212 8.218035 -1.556289
v 4.066777 8.218035 -0.000000
v 3.757212 8.218035 1.556289
v 2.875646 8.218035 2.875647
v 1.556288 8.218035 3.757213
v -0.000001 8.218035 4.066778
v -1.556289 8.218035 3.757214
v -2.875648 8.218035 2.875647
v -3.757216 8.218035 1.556289
v -4.066780 8.218035 -0.000000
v -3.757215 8.218035 -1.556290
v -2.875647 8.218035 -2.875648
v -1.556288 8.218035 -3.757215
v -0.000002 9.547855 -5.101741
v 1.952350 9.547855 -4.713393
v 3.607473 9.547855 -3.607476
v 4.713391 9.547855 -1.952352
v 5.101738 9.547855 -0.000000
v 4.713391 9.547855 1.952352
v 3.607473 9.547855 3.607475
v 1.952350 9.547855 4.713392
v -0.000001 9.547855 5.101739
v -1.952351 9.547855 4.713393
v -3.607476 9.547855 3.607476
v -4.713394 9.547855 1.952352
v -5.101742 9.547855 -0.000000
v -4.713394 9.547855 -1.952353
v -3.607475 9.547855 -3.607476
v -1.952351 9.547855 -4.713394
v -0.000002 11.614795 -5.583887
v 2.136860 11.614795 -5.158839
v 3.948403 11.614795 -3.948405
v 5.158837 11.614795 -2.136862
v 5.583886 11.614795 0.000000
v 5.158837 11.614795 2.136862
v 3.948403 11.614795 3.948405
v 2.136860 11.614795 5.158839
v -0.000001 11.614795 5.583887
v -2.136861 11.614795 5.158839
v -3.948406 11.614795 3.948406
v -5.158841 11.614795 2.136862
v -5.583889 11.614795 -0.000000
v -5.158840 11.614795 -2.136863
v -3.948406 11.614795 -3.948406
v -2.136860 11.614795 -5.158841
v -0.000002 14.483474 -5.356001
v 2.049651 14.483474 -4.948299
v 3.787263 14.483474 -3.787265
v 4.948297 14.483474 -2.049653
v 5.355999 14.483474 -0.000000
v 4.948297 14.483474 2.049653
v 3.787263 14.483474 3.787264
v 2.049652 14.483474 4.948299
v -0.000001 14.483474 5.356001
v -2.049653 14.483474 4.948299
v -3.787265 14.483474 3.787265
v -4.948301 14.483474 2.049653
v -5.356002 14.483474 -0.000000
v -4.948300 14.483474 -2.049654
v -3.787265 14.483474 -3.787266
v -2.049652 14.483474 -4.948300
v -0.000002 16.345171 -4.202096
v 1.608071 16.345171 -3.882230
v 2.971329 16.345171 -2.971331
v 3.882228 16.345171 -1.608073
v 4.202094 16.345171 -0.000000
v 3.882228 16.345171 1.608073
v 2.971329 16.345171 2.971330
v 1.608071 16.345171 3.882230
v -0.000001 16.345171 4.202095
v -1.608073 16.345171 3.882230
v -2.971331 16.345171 2.971331
v -3.882231 16.345171 1.608073
v -4.202097 16.345171 -0.000000
v -3.882231 16.345171 -1.608073
v -2.971331 16.345171 -2.971332
v -1.608072 16.345171 -3.882231
v -0.000001 17.511162 -2.642975
v 1.011421 17.511162 -2.441791
v 1.868864 17.511162 -1.868866
v 2.441789 17.511162 -1.011423
v 2.642973 17.511162 -0.000000
v 2.441789 17.511162 1.011423
v 1.868864 17.511162 1.868865
v 1.011421 17.511162 2.441790
v -0.000001 17.511162 2.642975
v -1.011423 17.511162 2.441790
v -1.868867 17.511162 1.868866
v -2.441792 17.511162 1.011423
v -2.642976 17.511162 -0.000000
v -2.441792 17.511162 -1.011423
v -1.868866 17.511162 -1.868866
v -1.011423 17.511162 -2.441791
v -0.000001 17.982769 -0.742661
v 0.284202 17.982769 -0.686129
v 0.525139 17.982769 -0.525141
v 0.686127 17.982769 -0.284204
v 0.742659 17.982769 -0.000000
v 0.686127 17.982769 0.284204
v 0.525139 17.982769 0.525140
v 0.284202 17.982769 0.686128
v -0.000001 17.982769 0.742660
v -0.284205 17.982769 0.686128
v -0.525142 17.982769 0.525140
v -0.686130 17.982769 0.284204
v -0.742662 17.982769 -0.000000
v -0.686130 17.982769 -0.284204
v -0.525142 17.982769 -0.525141
v -0.284205 17.982769 -0.686129
v 0.827086 5.188843 -1.996766
v 0.827086 6.447352 -1.996766
v -0.000001 5.188843 -2.161284
v 1.528257 5.188843 -1.528258
v 1.996764 5.188843 -0.827088
v 2.161282 5.188843 -0.000000
v 1.996764 5.188843 0.827087
v 1.528257 5.188843 1.528258
v 0.827086 5.188843 1.996765
v -0.000001 5.188843 2.161283
v -0.827088 5.188843 1.996766
v -1.528259 5.188843 1.528259
v -1.996767 5.188843 0.827088
v -2.161285 5.188843 -0.000000
v -1.996767 5.188843 -0.827088
v -1.528259 5.188843 -1.528259
v -0.827088 5.188843 -1.996766
v -0.000001 7.040277 -2.161284
v 1.528257 7.040277 -1.528258
v 1.996764 7.040277 -0.827088
v 2.161282 7.040277 -0.000000
v 1.996764 7.040277 0.827087
v 1.528257 7.040277 1.528258
v 0.827086 7.040277 1.996765
v -0.000001 7.040277 2.161283
v -0.827088 7.040277 1.996766
v -1.528259 7.040277 1.528259
v -1.996767 7.040277 0.827088
v -2.161285 7.040277 -0.000000
v -1.996767 7.040277 -0.827088
v -1.528259 7.040277 -1.528259
v -0.827088 7.040277 -1.996766
v -0.000001 6.447352 -0.000000
v -0.000001 6.447352 -2.161284
v 1.528257 6.447352 -1.528258
v 1.996764 6.447352 -0.827088
v 2.161282 6.447352 -0.000000
v 1.996764 6.447352 0.827087
v 1.528257 6.447352 1.528258
v 0.827086 6.447352 1.996765
v -0.000001 6.447352 2.161283
v -0.827088 6.447352 1.996766
v -1.528259 6.447352 1.528259
v -1.996767 6.447352 0.827088
v -2.161285 6.447352 -0.000000
v -1.996767 6.447352 -0.827088
v -1.528259 6.447352 -1.528259
v -0.827088 6.447352 -1.996766
vn -0.8315 0.0000 -0.5556
vn -0.5556 0.0000 0.8315
vn 0.8315 0.0000 0.5556
vn 0.5556 0.0000 -0.8315
vn -0.9808 0.0000 -0.1951
vn -0.1951 0.0000 0.9808
vn 0.9808 0.0000 0.1951
vn 0.1951 0.0000 -0.9808
vn -0.9808 0.0000 0.1951
vn -0.1951 0.0000 -0.9808
vn 0.1951 0.0000 0.9808
vn 0.9808 0.0000 -0.1951
vn -0.5556 0.0000 -0.8315
vn -0.8315 0.0000 0.5556
vn 0.5556 0.0000 0.8315
vn 0.8315 0.0000 -0.5556
vn 0.4126 -0.8682 -0.2757
vn -0.4867 -0.8682 -0.0968
vn 0.2757 -0.8682 0.4126
vn 0.0968 -0.8682 -0.4867
vn -0.4126 -0.8682 0.2757
vn 0.4867 -0.8682 0.0968
vn -0.2757 -0.8682 -0.4126
vn -0.0968 -0.8682 0.4867
vn 0.7796 -0.6068 0.1551
vn 0.1551 -0.6068 -0.7796
vn -0.4416 -0.6068 -0.6609
vn -0.6609 -0.6068 0.4416
vn 0.4416 -0.6068 0.6609
vn 0.6609 -0.6068 -0.4416
vn -0.7796 -0.6068 -0.1551
vn -0.1551 -0.6068 0.7796
vn -0.5416 -0.2230 -0.8105
vn -0.8105 -0.2230 0.5416
vn 0.5416 -0.2230 0.8105
vn 0.8105 -0.2230 -0.5416
vn -0.9561 -0.2230 -0.1902
vn -0.1902 -0.2230 0.9561
vn 0.9561 -0.2230 0.1902
vn 0.1902 -0.2230 -0.9561
vn -0.9778 0.0777 -0.1945
vn -0.1945 0.0777 0.9778
vn 0.9778 0.0777 0.1945
vn 0.1945 0.0777 -0.9778
vn -0.5539 0.0777 -0.8290
vn -0.8290 0.0777 0.5539
vn 0.5539 0.0777 0.8290
vn 0.8290 0.0777 -0.5539
vn 0.8381 0.5195 0.1667
vn 0.1667 0.5195 -0.8381
vn -0.4747 0.5195 -0.7105
vn -0.7105 0.5195 0.4747
vn 0.4747 0.5195 0.7105
vn 0.7105 0.5195 -0.4747
vn -0.8381 0.5195 -0.1667
vn -0.1667 0.5195 0.8381
vn -0.3369 0.7952 -0.5042
vn -0.5042 0.7952 0.3369
vn 0.3369 0.7952 0.5042
vn 0.5042 0.7952 -0.3369
vn -0.5947 0.7952 -0.1183
vn -0.1183 0.7952 0.5947
vn 0.5947 0.7952 0.1183
vn 0.1183 0.7952 -0.5947
vn -0.2406 0.9694 -0.0479
vn -0.0479 0.9694 0.2406
vn 0.2406 0.9694 0.0479
vn 0.0479 0.9694 -0.2406
vn -0.1363 0.9694 -0.2040
vn -0.2040 0.9694 0.1363
vn 0.1363 0.9694 0.2040
vn 0.2040 0.9694 -0.1363
vn 0.0000 1.0000 0.0000
vn -0.0312 -0.9984 -0.0468
vn -0.0551 -0.9984 0.0110
vn -0.0110 -0.9984 0.0552
vn 0.0468 -0.9984 0.0312
vn 0.0468 -0.9984 -0.0312
vn -0.0551 -0.9984 -0.0110
vn -0.0312 -0.9984 0.0468
vn 0.0312 -0.9984 0.0467
vn 0.0551 -0.9984 -0.0110
vn -0.0110 -0.9984 -0.0552
vn -0.0468 -0.9984 -0.0312
vn -0.0468 -0.9984 0.0312
vn 0.0110 -0.9984 0.0551
vn 0.0110 -0.9984 -0.0552
vn 0.0551 -0.9984 0.0110
vn 0.0312 -0.9984 -0.0467
vn -0.0110 -0.9984 0.0551
vn -0.0312 -0.9984 0.0467
vn 0.0312 -0.9984 0.0468
vn -0.0110 -0.9984 -0.0551
vn 0.0110 -0.9984 -0.0551
vn 0.0312 -0.9984 -0.0468
vn 0.0968 -0.8682 0.4867
vn 0.1551 -0.6068 0.7796
vn 0.1902 -0.2230 0.9561
vn 0.1945 0.0777 0.9778
vn 0.1667 0.5195 0.8381
vn 0.1183 0.7952 0.5947
vn 0.0479 0.9694 0.2406
vn -0.2757 -0.8682 0.4126
vn -0.4416 -0.6068 0.6609
vn -0.5416 -0.2230 0.8105
vn -0.5539 0.0777 0.8290
vn -0.4747 0.5195 0.7105
vn -0.3369 0.7952 0.5042
vn -0.1363 0.9694 0.2040
vn -0.4867 -0.8682 0.0968
vn -0.7796 -0.6068 0.1551
vn -0.9561 -0.2230 0.1902
vn -0.9778 0.0777 0.1945
vn -0.8381 0.5195 0.1667
vn -0.5947 0.7952 0.1183
vn -0.2406 0.9694 0.0479
vn -0.4126 -0.8682 -0.2757
vn -0.6609 -0.6068 -0.4416
vn -0.8105 -0.2230 -0.5416
vn -0.8290 0.0777 -0.5539
vn -0.7105 0.5195 -0.4747
vn -0.5042 0.7952 -0.3369
vn -0.2040 0.9694 -0.1363
vn -0.0968 -0.8682 -0.4867
vn -0.1551 -0.6068 -0.7796
vn -0.1902 -0.2230 -0.9561
vn -0.1945 0.0777 -0.9778
vn -0.1667 0.5195 -0.8381
vn -0.1183 0.7952 -0.5947
vn -0.0479 0.9694 -0.2406
vn 0.2757 -0.8682 -0.4126
vn 0.4416 -0.6068 -0.6609
vn 0.5416 -0.2230 -0.8105
vn 0.5539 0.0777 -0.8290
vn 0.4747 0.5195 -0.7105
vn 0.3369 0.7952 -0.5042
vn 0.1363 0.9694 -0.2040
vn 0.4867 -0.8682 -0.0968
vn 0.7796 -0.6068 -0.1551
vn 0.9561 -0.2230 -0.1902
vn 0.9778 0.0777 -0.1945
vn 0.8381 0.5195 -0.1667
vn 0.5947 0.7952 -0.1183
vn 0.2406 0.9694 -0.0479
vn 0.4126 -0.8682 0.2757
vn 0.6609 -0.6068 0.4416
vn 0.8105 -0.2230 0.5416
vn 0.8290 0.0777 0.5539
vn 0.7105 0.5195 0.4747
vn 0.5042 0.7952 0.3369
vn 0.2040 0.9694 0.1363
vn 0.0000 -1.0000 0.0000
usemtl Main.002
s off
f 205//17 220//17 204//17
f 201//18 216//18 200//18
f 197//19 212//19 196//19
f 193//20 176//20 29//20
f 204//21 219//21 203//21
f 200//22 215//22 199//22
f 196//23 211//23 195//23
f 29//24 208//24 192//24
f 203//25 218//25 202//25
f 192//26 222//26 206//26
f 199//27 214//27 198//27
f 195//28 210//28 194//28
f 206//29 221//29 205//29
f 202//30 217//30 201//30
f 198//31 213//31 197//31
f 194//32 209//32 193//32
f 205//17 221//17 220//17
f 201//18 217//18 216//18
f 197//19 213//19 212//19
f 193//20 209//20 176//20
f 204//21 220//21 219//21
f 200//22 216//22 215//22
f 196//23 212//23 211//23
f 29//24 176//24 208//24
f 203//25 219//25 218//25
f 192//26 208//26 222//26
f 199//27 215//27 214//27
f 195//28 211//28 210//28
f 206//29 222//29 221//29
f 202//30 218//30 217//30
f 198//31 214//31 213//31
f 194//32 210//32 209//32
usemtl Blue
f 37//33 65//33 66//33
f 57//34 75//34 76//34
f 43//35 70//35 45//35
f 33//36 63//36 64//36
f 51//37 74//37 53//37
f 41//38 67//38 68//38
f 59//39 78//39 61//39
f 47//40 72//40 49//40
f 67//41 84//41 68//41
f 63//42 80//42 64//42
f 77//43 94//43 78//43
f 73//44 90//44 74//44
f 69//45 86//45 70//45
f 65//46 82//46 66//46
f 75//47 92//47 76//47
f 72//48 87//48 88//48
f 93//49 110//49 94//49
f 90//50 105//50 106//50
f 85//51 102//51 86//51
f 81//52 98//52 82//52
f 91//53 108//53 92//53
f 87//54 104//54 88//54
f 83//55 100//55 84//55
f 79//56 96//56 80//56
f 107//57 124//57 108//57
f 103//58 120//58 104//58
f 99//59 116//59 100//59
f 95//60 112//60 96//60
f 109//61 126//61 110//61
f 105//62 122//62 106//62
f 102//63 117//63 118//63
f 98//64 113//64 114//64
f 115//65 132//65 116//65
f 111//66 128//66 112//66
f 125//67 142//67 126//67
f 121//68 138//68 122//68
f 118//69 133//69 134//69
f 114//70 129//70 130//70
f 123//71 140//71 124//71
f 119//72 136//72 120//72
f 142//73 157//73 158//73
f 138//74 153//74 154//74
f 133//75 150//75 134//75
f 129//76 146//76 130//76
f 139//77 156//77 140//77
f 135//78 152//78 136//78
f 131//79 148//79 132//79
f 127//80 144//80 128//80
f 156//81 171//81 172//81
f 152//82 167//82 168//82
f 147//83 164//83 148//83
f 143//84 160//84 144//84
f 157//85 174//85 158//85
f 154//86 169//86 170//86
f 149//87 166//87 150//87
f 145//88 162//88 146//88
f 62//89 160//89 159//89
f 62//89 162//89 161//89
f 62//89 164//89 163//89
f 62//89 166//89 165//89
f 62//89 168//89 167//89
f 62//89 170//89 169//89
f 62//89 172//89 171//89
f 62//89 174//89 173//89
f 37//33 35//33 65//33
f 57//34 55//34 75//34
f 43//35 69//35 70//35
f 33//36 31//36 63//36
f 51//37 73//37 74//37
f 41//38 39//38 67//38
f 59//39 77//39 78//39
f 47//40 71//40 72//40
f 67//41 83//41 84//41
f 63//42 79//42 80//42
f 77//43 93//43 94//43
f 73//44 89//44 90//44
f 69//45 85//45 86//45
f 65//46 81//46 82//46
f 75//47 91//47 92//47
f 72//48 71//48 87//48
f 93//49 109//49 110//49
f 90//50 89//50 105//50
f 85//51 101//51 102//51
f 81//52 97//52 98//52
f 91//53 107//53 108//53
f 87//54 103//54 104//54
f 83//55 99//55 100//55
f 79//56 95//56 96//56
f 107//57 123//57 124//57
f 103//58 119//58 120//58
f 99//59 115//59 116//59
f 95//60 111//60 112//60
f 109//61 125//61 126//61
f 105//62 121//62 122//62
f 102//63 101//63 117//63
f 98//64 97//64 113//64
f 115//65 131//65 132//65
f 111//66 127//66 128//66
f 125//67 141//67 142//67
f 121//68 137//68 138//68
f 118//69 117//69 133//69
f 114//70 113//70 129//70
f 123//71 139//71 140//71
f 119//72 135//72 136//72
f 142//73 141//73 157//73
f 138//74 137//74 153//74
f 133//75 149//75 150//75
f 129//76 145//76 146//76
f 139//77 155//77 156//77
f 135//78 151//78 152//78
f 131//79 147//79 148//79
f 127//80 143//80 144//80
f 156//81 155//81 171//81
f 152//82 151//82 167//82
f 147//83 163//83 164//83
f 143//84 159//84 160//84
f 157//85 173//85 174//85
f 154//86 153//86 169//86
f 149//87 165//87 166//87
f 145//88 161//88 162//88
usemtl Red
f 58//90 191//90 190//90
f 31//24 32//24 30//24
f 54//91 187//91 52//91
f 33//20 34//20 32//20
f 46//92 185//92 184//92
f 35//32 36//32 34//32
f 42//93 181//93 40//93
f 37//28 38//28 36//28
f 36//94 178//94 34//94
f 39//23 40//23 38//23
f 56//95 188//95 54//95
f 41//19 42//19 40//19
f 48//96 186//96 185//96
f 43//31 44//31 42//31
f 44//97 182//97 42//97
f 45//27 46//27 44//27
f 36//98 180//98 179//98
f 47//22 48//22 46//22
f 60//99 177//99 191//99
f 49//18 50//18 48//18
f 58//100 189//100 56//100
f 51//30 52//30 50//30
f 52//101 186//101 50//101
f 53//25 54//25 52//25
f 44//102 184//102 183//102
f 55//21 56//21 54//21
f 32//103 177//103 30//103
f 57//17 58//17 56//17
f 38//104 181//104 180//104
f 59//29 60//29 58//29
f 34//105 175//105 32//105
f 61//26 30//26 60//26
f 180//25 194//25 179//25
f 191//31 205//31 190//31
f 187//32 201//32 186//32
f 183//29 197//29 182//29
f 179//30 193//30 178//30
f 190//19 204//19 189//19
f 186//20 200//20 185//20
f 182//17 196//17 181//17
f 178//18 29//18 175//18
f 189//23 203//23 188//23
f 185//24 199//24 184//24
f 181//21 195//21 180//21
f 175//22 192//22 177//22
f 188//28 202//28 187//28
f 177//27 206//27 191//27
f 184//26 198//26 183//26
f 58//90 60//90 191//90
f 31//24 33//24 32//24
f 54//91 188//91 187//91
f 33//20 35//20 34//20
f 46//106 48//106 185//106
f 35//32 37//32 36//32
f 42//93 182//93 181//93
f 37//28 39//28 38//28
f 36//94 179//94 178//94
f 39//23 41//23 40//23
f 56//95 189//95 188//95
f 41//19 43//19 42//19
f 48//107 50//107 186//107
f 43//31 45//31 44//31
f 44//108 183//108 182//108
f 45//27 47//27 46//27
f 36//98 38//98 180//98
f 47//22 49//22 48//22
f 60//109 30//109 177//109
f 49//18 51//18 50//18
f 58//100 190//100 189//100
f 51//30 53//30 52//30
f 52//101 187//101 186//101
f 53//25 55//25 54//25
f 44//102 46//102 184//102
f 55//21 57//21 56//21
f 32//110 175//110 177//110
f 57//17 59//17 58//17
f 38//104 40//104 181//104
f 59//29 61//29 60//29
f 34//111 178//111 175//111
f 61//26 31//26 30//26
f 180//25 195//25 194//25
f 191//31 206//31 205//31
f 187//32 202//32 201//32
f 183//29 198//29 197//29
f 179//30 194//30 193//30
f 190//19 205//19 204//19
f 186//20 201//20 200//20
f 182//17 197//17 196//17
f 178//18 193//18 29//18
f 189//23 204//23 203//23
f 185//24 200//24 199//24
f 181//21 196//21 195//21
f 175//22 29//22 192//22
f 188//28 203//28 202//28
f 177//27 192//27 206//27
f 184//26 199//26 198//26
usemtl Yellow
f 45//112 71//112 47//112
f 71//113 86//113 87//113
f 86//114 103//114 87//114
f 103//115 118//115 119//115
f 119//116 134//116 135//116
f 134//117 151//117 135//117
f 151//118 166//118 167//118
f 62//89 167//89 166//89
f 45//112 70//112 71//112
f 71//113 70//113 86//113
f 86//114 102//114 103//114
f 103//115 102//115 118//115
f 119//116 118//116 134//116
f 134//117 150//117 151//117
f 151//118 150//118 166//118
usemtl Orange
f 49//119 73//119 51//119
f 72//120 89//120 73//120
f 88//121 105//121 89//121
f 104//122 121//122 105//122
f 120//123 137//123 121//123
f 136//124 153//124 137//124
f 152//125 169//125 153//125
f 62//89 169//89 168//89
f 49//119 72//119 73//119
f 72//120 88//120 89//120
f 88//121 104//121 105//121
f 104//122 120//122 121//122
f 120//123 136//123 137//123
f 136//124 152//124 153//124
f 152//125 168//125 169//125
usemtl Green
f 53//126 75//126 55//126
f 74//127 91//127 75//127
f 90//128 107//128 91//128
f 107//129 122//129 123//129
f 123//130 138//130 139//130
f 139//131 154//131 155//131
f 155//132 170//132 171//132
f 62//89 171//89 170//89
f 53//126 74//126 75//126
f 74//127 90//127 91//127
f 90//128 106//128 107//128
f 107//129 106//129 122//129
f 123//130 122//130 138//130
f 139//131 138//131 154//131
f 155//132 154//132 170//132
usemtl Pink
f 57//133 77//133 59//133
f 76//134 93//134 77//134
f 92//135 109//135 93//135
f 108//136 125//136 109//136
f 125//137 140//137 141//137
f 140//138 157//138 141//138
f 156//139 173//139 157//139
f 62//89 173//89 172//89
f 57//133 76//133 77//133
f 76//134 92//134 93//134
f 92//135 108//135 109//135
f 108//136 124//136 125//136
f 125//137 124//137 140//137
f 140//138 156//138 157//138
f 156//139 172//139 173//139
usemtl Blue_Sky
f 61//140 63//140 31//140
f 78//141 79//141 63//141
f 94//142 95//142 79//142
f 110//143 111//143 95//143
f 126//144 127//144 111//144
f 142//145 143//145 127//145
f 158//146 159//146 143//146
f 62//89 159//89 174//89
f 61//140 78//140 63//140
f 78//141 94//141 79//141
f 94//142 110//142 95//142
f 110//143 126//143 111//143
f 126//144 142//144 127//144
f 142//145 158//145 143//145
f 158//146 174//146 159//146
usemtl Purple
f 33//147 65//147 35//147
f 64//148 81//148 65//148
f 80//149 97//149 81//149
f 96//150 113//150 97//150
f 112//151 129//151 113//151
f 128//152 145//152 129//152
f 145//153 160//153 161//153
f 62//89 161//89 160//89
f 33//147 64//147 65//147
f 64//148 80//148 81//148
f 80//149 96//149 97//149
f 96//150 112//150 113//150
f 112//151 128//151 129//151
f 128//152 144//152 145//152
f 145//153 144//153 160//153
usemtl Blue_Cyan
f 39//154 66//154 67//154
f 66//155 83//155 67//155
f 82//156 99//156 83//156
f 98//157 115//157 99//157
f 114//158 131//158 115//158
f 130//159 147//159 131//159
f 146//160 163//160 147//160
f 62//89 163//89 162//89
f 39//154 37//154 66//154
f 66//155 82//155 83//155
f 82//156 98//156 99//156
f 98//157 114//157 115//157
f 114//158 130//158 131//158
f 130//159 146//159 147//159
f 146//160 162//160 163//160
usemtl White
f 41//161 69//161 43//161
f 68//162 85//162 69//162
f 84//163 101//163 85//163
f 100//164 117//164 101//164
f 116//165 133//165 117//165
f 132//166 149//166 133//166
f 148//167 165//167 149//167
f 62//89 165//89 164//89
f 41//161 68//161 69//161
f 68//162 84//162 85//162
f 84//163 100//163 101//163
f 100//164 116//164 117//164
f 116//165 132//165 133//165
f 132//166 148//166 149//166
f 148//167 164//167 165//167
usemtl Black
f 207//168 208//168 176//168
f 207//168 176//168 209//168
f 207//168 209//168 210//168
f 207//168 210//168 211//168
f 207//168 211//168 212//168
f 207//168 212//168 213//168
f 207//168 213//168 214//168
f 207//168 214//168 215//168
f 207//168 215//168 216//168
f 207//168 216//168 217//168
f 207//168 217//168 218//168
f 207//168 218//168 219//168
f 207//168 219//168 220//168
f 207//168 220//168 221//168
f 207//168 221//168 222//168
f 207//168 222//168 208//168
o Rope3_Cube.005
v 1.424927 2.935268 -1.251658
v 1.374255 5.312443 -1.577954
v 1.418016 2.926394 -1.315236
v 1.367344 5.303569 -1.641531
v 1.489106 2.935670 -1.258691
v 1.438434 5.312846 -1.584987
v 1.482195 2.926796 -1.322269
v 1.431523 5.303972 -1.648564
vn -0.9940 -0.0062 0.1089
vn -0.1070 -0.1374 -0.9847
vn 0.9940 0.0062 -0.1089
vn 0.1070 0.1374 0.9847
vn 0.0211 -0.9905 0.1360
vn -0.0211 0.9905 -0.1359
vn -0.0211 0.9905 -0.1360
usemtl Cuerda.004
s off
f 224//169 225//169 223//169
f 226//170 229//170 225//170
f 230//171 227//171 229//171
f 228//172 223//172 227//172
f 229//173 223//173 225//173
f 226//174 228//174 230//174
f 224//169 226//169 225//169
f 226//170 230//170 229//170
f 230//171 228//171 227//171
f 228//172 224//172 223//172
f 229//173 227//173 223//173
f 226//175 224//175 228//175
o Rope4_Cube.006
v -1.291620 2.907729 -1.238800
v -1.292991 5.259270 -1.718645
v -1.294686 2.894833 -1.301989
v -1.296057 5.246374 -1.781834
v -1.227128 2.907152 -1.241811
v -1.228499 5.258693 -1.721656
v -1.230194 2.894256 -1.305000
v -1.231565 5.245797 -1.784846
vn -0.9989 0.0089 0.0466
vn -0.0475 -0.1997 -0.9787
vn 0.9989 -0.0089 -0.0466
vn 0.0475 0.1997 0.9787
vn 0.0006 -0.9798 0.1999
vn -0.0006 0.9798 -0.2000
vn -0.0006 0.9798 -0.1999
usemtl Cuerda.003
s off
f 232//176 233//176 231//176
f 234//177 237//177 233//177
f 238//178 235//178 237//178
f 236//179 231//179 235//179
f 237//180 231//180 233//180
f 234//181 236//181 238//181
f 232//176 234//176 233//176
f 234//177 238//177 237//177
f 238//178 236//178 235//178
f 236//179 232//179 231//179
f 237//180 235//180 231//180
f 234//182 232//182 236//182
o Rope2_Cube.007
v -1.267644 2.862229 1.470947
v -1.333187 5.243405 1.763699
v -1.272866 2.869940 1.407058
v -1.338409 5.251117 1.699809
v -1.203315 2.864611 1.465977
v -1.268858 5.245787 1.758729
v -1.208537 2.872322 1.402088
v -1.274080 5.253498 1.694839
vn -0.9964 -0.0369 0.0770
vn -0.0809 0.1194 -0.9895
vn 0.9964 0.0369 -0.0770
vn 0.0809 -0.1194 0.9895
vn 0.0273 -0.9922 -0.1220
vn -0.0273 0.9922 0.1220
usemtl Cuerda.002
s off
f 240//183 241//183 239//183
f 242//184 245//184 241//184
f 246//185 243//185 245//185
f 244//186 239//186 243//186
f 245//187 239//187 241//187
f 242//188 244//188 246//188
f 240//183 242//183 241//183
f 242//184 246//184 245//184
f 246//185 244//185 243//185
f 244//186 240//186 239//186
f 245//187 243//187 239//187
f 242//188 240//188 244//188
